<?xml version="1.0" encoding="UTF-8"?>
<svg height="600" width="800" xmlns="http://www.w3.org/2000/svg" xmlns:xlink="http://www.w3.org/1999/xlink">
    <g id="Notes" font-family="'LucidaGrande', 'Lucida Grande', sans-serif" font-size="13">
        <rect fill="white" height="600.0" width="800.0" x="0.0" y="0.0" />
        <g font-size="13">
            <text x="18.0" y="176.0">Small</text>
            <text x="18.0" y="376.0">Medium</text>
            <text x="18.0" y="576.0">Large</text>
        </g>
        <g font-size="9">
            <text x="250.0" y="30.0">Ultralight</text>
            <text x="450.0" y="30.0">Regular</text>
            <text x="650.0" y="30.0">Black</text>
            <text id="template-version" fill="#505050" text-anchor="end" x="785.0" y="575.0">Template v.3.0</text>
            <a href="https://github.com/swhitty/SwiftDraw">
                <text fill="#505050" text-anchor="end" x="785.0" y="590.0">https://github.com/swhitty/SwiftDraw</text>
            </a>
        </g>
    </g>
    <g id="Guides" stroke="rgb(39, 170, 225)" stroke-width="0.5">
        <path id="Capline-S" d="M18,76 l800,0" />
        <path id="H-reference" d="M85,145.755 L87.685,145.755 L113.369,79.287 L114.052,79.287 L114.052,76 L112.148,76 L85,145.755 Z M95.693,121.536 L130.996,121.536 L130.263,119.313 L96.474,119.313 L95.693,121.536 Z M139.15,145.755 L141.787,145.755 L114.638,76 L113.466,76 L113.466,79.287 L139.15,145.755 Z" stroke="none" />
        <path id="Baseline-S" d="M18,146 l800,0" />
        <path id="left-margin-Ultralight-S" d="M220.001,56 l0,110" />
        <path id="right-margin-Ultralight-S" d="M309.999,56 l0,110" />
        <path id="left-margin-Regular-S" d="M420.001,56 l0,110" />
        <path id="right-margin-Regular-S" d="M509.999,56 l0,110" />
        <path id="left-margin-Black-S" d="M620.001,56 l0,110" />
        <path id="right-margin-Black-S" d="M709.999,56 l0,110" />
        <path id="Capline-M" d="M18,276 l800,0" />
        <path id="Baseline-M" d="M18,346 l800,0" />
        <path id="Capline-L" d="M18,476 l800,0" />
        <path id="Baseline-L" d="M18,546 l800,0" />
    </g>
    <g id="Symbols">
        <g id="Ultralight-S">
            <path d="M278.023,106.115 C278.023,108.811 276.564,110.999 274.767,110.999 C272.97,110.999 271.511,108.811 271.511,106.115 C271.511,103.419 272.97,101.232 274.767,101.232 C276.564,101.232 278.023,103.419 278.023,106.115" />
            <path d="M251.977,106.115 C251.977,103.418 253.435,101.232 255.233,101.232 C257.031,101.232 258.489,103.418 258.489,106.115 C258.489,108.812 257.031,110.999 255.233,110.999 C253.435,110.999 251.977,108.812 251.977,106.115 Z" />
            <path d="M299.999,136.142 L299.999,111.979 C299.999,92.12 284.348,76 265,76 C245.655,76 230.001,92.124 230.001,111.975 L230.001,136.142 C230.001,142.249 236.311,146.265 241.699,143.493 C243.914,142.351 246.575,142.522 248.623,143.937 C252.6,146.687 257.866,146.687 261.844,143.936 L262.985,143.154 C264.2,142.318 265.8,142.318 267.012,143.151 L268.164,143.942 C272.134,146.687 277.4,146.687 281.378,143.936 C283.426,142.521 286.088,142.35 288.301,143.492 C293.689,146.266 299.999,142.249 299.999,136.142 Z M295.115,136.142 C295.115,138.644 292.628,140.227 290.539,139.151 C286.725,137.182 282.134,137.477 278.601,139.919 C276.294,141.515 273.24,141.515 270.934,139.919 L269.776,139.126 C266.901,137.147 263.099,137.147 260.22,139.128 L259.074,139.914 C256.76,141.515 253.706,141.515 251.4,139.919 C247.867,137.479 243.278,137.184 239.463,139.152 C237.373,140.227 234.885,138.644 234.885,136.142 L234.885,111.975 C234.885,94.789 248.385,80.884 265,80.884 C281.618,80.884 295.115,94.785 295.115,111.979 L295.115,136.142 Z" />
        </g>
        <g id="Regular-S">
            <path d="M478.023,106.115 C478.023,108.811 476.564,110.999 474.767,110.999 C472.97,110.999 471.511,108.811 471.511,106.115 C471.511,103.419 472.97,101.232 474.767,101.232 C476.564,101.232 478.023,103.419 478.023,106.115" />
            <path d="M451.977,106.115 C451.977,103.418 453.435,101.232 455.233,101.232 C457.031,101.232 458.489,103.418 458.489,106.115 C458.489,108.812 457.031,110.999 455.233,110.999 C453.435,110.999 451.977,108.812 451.977,106.115 Z" />
            <path d="M499.999,136.142 L499.999,111.979 C499.999,92.12 484.348,76 465,76 C445.655,76 430.001,92.124 430.001,111.975 L430.001,136.142 C430.001,142.249 436.311,146.265 441.699,143.493 C443.914,142.351 446.575,142.522 448.623,143.937 C452.6,146.687 457.866,146.687 461.844,143.936 L462.985,143.154 C464.2,142.318 465.8,142.318 467.012,143.151 L468.164,143.942 C472.134,146.687 477.4,146.687 481.378,143.936 C483.426,142.521 486.088,142.35 488.301,143.492 C493.689,146.266 499.999,142.249 499.999,136.142 Z M495.115,136.142 C495.115,138.644 492.628,140.227 490.539,139.151 C486.725,137.182 482.134,137.477 478.601,139.919 C476.294,141.515 473.24,141.515 470.934,139.919 L469.776,139.126 C466.901,137.147 463.099,137.147 460.22,139.128 L459.074,139.914 C456.76,141.515 453.706,141.515 451.4,139.919 C447.867,137.479 443.278,137.184 439.463,139.152 C437.373,140.227 434.885,138.644 434.885,136.142 L434.885,111.975 C434.885,94.789 448.385,80.884 465,80.884 C481.618,80.884 495.115,94.785 495.115,111.979 L495.115,136.142 Z" />
        </g>
        <g id="Black-S">
            <path d="M678.023,106.115 C678.023,108.811 676.564,110.999 674.767,110.999 C672.97,110.999 671.511,108.811 671.511,106.115 C671.511,103.419 672.97,101.232 674.767,101.232 C676.564,101.232 678.023,103.419 678.023,106.115" />
            <path d="M651.977,106.115 C651.977,103.418 653.435,101.232 655.233,101.232 C657.031,101.232 658.489,103.418 658.489,106.115 C658.489,108.812 657.031,110.999 655.233,110.999 C653.435,110.999 651.977,108.812 651.977,106.115 Z" />
            <path d="M699.999,136.142 L699.999,111.979 C699.999,92.12 684.348,76 665,76 C645.655,76 630.001,92.124 630.001,111.975 L630.001,136.142 C630.001,142.249 636.311,146.265 641.699,143.493 C643.914,142.351 646.575,142.522 648.623,143.937 C652.6,146.687 657.866,146.687 661.844,143.936 L662.985,143.154 C664.2,142.318 665.8,142.318 667.012,143.151 L668.164,143.942 C672.134,146.687 677.4,146.687 681.378,143.936 C683.426,142.521 686.088,142.35 688.301,143.492 C693.689,146.266 699.999,142.249 699.999,136.142 Z M695.115,136.142 C695.115,138.644 692.628,140.227 690.539,139.151 C686.725,137.182 682.134,137.477 678.601,139.919 C676.294,141.515 673.24,141.515 670.934,139.919 L669.776,139.126 C666.901,137.147 663.099,137.147 660.22,139.128 L659.074,139.914 C656.76,141.515 653.706,141.515 651.4,139.919 C647.867,137.479 643.278,137.184 639.463,139.152 C637.373,140.227 634.885,138.644 634.885,136.142 L634.885,111.975 C634.885,94.789 648.385,80.884 665,80.884 C681.618,80.884 695.115,94.785 695.115,111.979 L695.115,136.142 Z" />
        </g>
    </g>
</svg>